<svg width="164" height="9" viewBox="0 0 164 9" fill="none" xmlns="http://www.w3.org/2000/svg">
<path fill-rule="evenodd" clip-rule="evenodd" d="M160.172 0.966463L163.354 4.14844C163.549 4.34371 163.549 4.66029 163.354 4.85555L160.172 8.03753C159.976 8.23279 159.66 8.23279 159.464 8.03753C159.269 7.84227 159.269 7.52569 159.464 7.33042L161.793 5.002L82 5.00199V4.00199L161.793 4.002L159.464 1.67357C159.269 1.47831 159.269 1.16173 159.464 0.966463C159.66 0.771201 159.976 0.771201 160.172 0.966463ZM3.82842 8.03752L0.646437 4.85554C0.451178 4.66028 0.451178 4.3437 0.646437 4.14843L3.82842 0.966454C4.02368 0.771192 4.34026 0.771192 4.53553 0.966454C4.73079 1.16172 4.73079 1.4783 4.53553 1.67356L2.2071 4.00199H82V5.00199H2.2071L4.53553 7.33041C4.73079 7.52568 4.73079 7.84226 4.53553 8.03752C4.34026 8.23278 4.02368 8.23278 3.82842 8.03752ZM140 5.00201H24V4.00201H140V5.00201Z" fill="#7DCFE4"/>
</svg>
