<svg width="8" height="164" viewBox="0 0 8 164" fill="none" xmlns="http://www.w3.org/2000/svg">
<path fill-rule="evenodd" clip-rule="evenodd" d="M0.466463 3.82841L3.64844 0.646439C3.84371 0.451172 4.16029 0.451172 4.35555 0.646439L7.53753 3.82841C7.73279 4.02368 7.73279 4.34026 7.53753 4.53552C7.34227 4.73079 7.02569 4.73079 6.83042 4.53552L4.502 2.20709L4.50199 82H3.50199L3.502 2.20709L1.17357 4.53552C0.978308 4.73079 0.661725 4.73079 0.466463 4.53552C0.271201 4.34026 0.271201 4.02368 0.466463 3.82841ZM7.53752 160.172L4.35554 163.354C4.16028 163.549 3.8437 163.549 3.64843 163.354L0.466454 160.172C0.271192 159.976 0.271192 159.66 0.466454 159.464C0.661716 159.269 0.978299 159.269 1.17356 159.464L3.50199 161.793L3.50199 82H4.50199L4.50199 161.793L6.83041 159.464C7.02568 159.269 7.34226 159.269 7.53752 159.464C7.73278 159.66 7.73278 159.976 7.53752 160.172ZM4.50201 46L4.50201 112H3.50201L3.50201 46H4.50201Z" fill="#7DCFE4"/>
</svg>
