<svg width="9" height="82" viewBox="0 0 9 82" fill="none" xmlns="http://www.w3.org/2000/svg">
<path fill-rule="evenodd" clip-rule="evenodd" d="M0.966463 3.82843L4.14844 0.646454C4.34371 0.451187 4.66029 0.451187 4.85555 0.646454L8.03753 3.82843C8.23279 4.0237 8.23279 4.34028 8.03753 4.53554C7.84227 4.7308 7.52569 4.7308 7.33042 4.53554L5.002 2.20712L5.00199 41H4.00199L4.002 2.20712L1.67357 4.53554C1.47831 4.7308 1.16172 4.7308 0.966463 4.53554C0.7712 4.34028 0.771201 4.0237 0.966463 3.82843ZM8.03752 78.1716L4.85554 81.3536C4.66028 81.5488 4.3437 81.5488 4.14843 81.3536L0.966454 78.1716C0.771192 77.9763 0.771192 77.6597 0.966454 77.4645C1.16172 77.2692 1.4783 77.2692 1.67356 77.4645L4.00199 79.7929L4.00199 41H5.00199L5.00199 79.7929L7.33041 77.4645C7.52568 77.2692 7.84226 77.2692 8.03752 77.4645C8.23278 77.6597 8.23278 77.9763 8.03752 78.1716ZM5.00201 11L5.00201 71H4.00201L4.00201 11H5.00201Z" fill="#7DCFE4"/>
</svg>
