<svg width="140" height="8" viewBox="0 0 140 8" fill="none" xmlns="http://www.w3.org/2000/svg">
<path fill-rule="evenodd" clip-rule="evenodd" d="M136.172 0.46447L139.354 3.64645C139.549 3.84171 139.549 4.1583 139.354 4.35356L136.172 7.53554C135.976 7.7308 135.66 7.7308 135.464 7.53554C135.269 7.34028 135.269 7.02369 135.464 6.82843L137.793 4.5L70 4.5V3.5L137.793 3.5L135.464 1.17158C135.269 0.976315 135.269 0.659732 135.464 0.46447C135.66 0.269208 135.976 0.269208 136.172 0.46447ZM3.82843 7.53752L0.646444 4.35554C0.451185 4.16027 0.451185 3.84369 0.646444 3.64843L3.82843 0.466449C4.02369 0.271187 4.34027 0.271187 4.53554 0.466449C4.73079 0.661711 4.73079 0.978294 4.53554 1.17356L2.20711 3.50198H70V4.50198H2.20711L4.53554 6.83041C4.73079 7.02567 4.73079 7.34225 4.53554 7.53752C4.34027 7.73278 4.02369 7.73278 3.82843 7.53752ZM128 4.50201H12V3.50201H128V4.50201Z" fill="#7DCFE4"/>
</svg>
